<svg xmlns="http://www.w3.org/2000/svg" width="145.361" height="145.361" viewBox="0 0 145.361 145.361">
  <g id="Group_12" data-name="Group 12" transform="translate(-2104.678 -255.5)">
    <path id="Path_58" data-name="Path 58" d="M223.851,152.45a2.442,2.442,0,0,1-2.271,2.271H208.407v4.315a2.146,2.146,0,0,1-2.271,2.271,2.276,2.276,0,0,1-2.271-2.271v-4.088H187.738v4.088a2.271,2.271,0,1,1-4.542,0v-4.088H167.07v4.088a2.276,2.276,0,0,1-2.271,2.271,2.146,2.146,0,0,1-2.271-2.271v-4.088H146.4v4.088a2.276,2.276,0,0,1-2.271,2.271,2.146,2.146,0,0,1-2.271-2.271v-4.088H125.733v4.088a2.276,2.276,0,0,1-2.271,2.271,2.146,2.146,0,0,1-2.271-2.271v-4.088H105.064v4.088a2.271,2.271,0,1,1-4.542,0v-4.088h-13.4a2.442,2.442,0,0,1-2.271-2.271v-9.312H80.761a2.271,2.271,0,0,1,0-4.542H84.85V122.7H80.761a2.271,2.271,0,0,1,0-4.542H84.85V102.028H80.761a2.146,2.146,0,0,1-2.271-2.271,2.276,2.276,0,0,1,2.271-2.271H84.85V81.36H80.761a2.276,2.276,0,0,1-2.271-2.271,2.146,2.146,0,0,1,2.271-2.271H84.85V60.691H80.761A2.276,2.276,0,0,1,78.49,58.42a2.146,2.146,0,0,1,2.271-2.271H84.85V40.023H80.761a2.276,2.276,0,0,1-2.271-2.271,2.146,2.146,0,0,1,2.271-2.271H84.85V20.944a2.276,2.276,0,0,1,2.271-2.271,2.146,2.146,0,0,1,2.271,2.271V150.18h11.357V80.223a2.146,2.146,0,0,1,2.271-2.271h14.99a2.276,2.276,0,0,1,2.271,2.271v69.954h11.357V70.23a2.442,2.442,0,0,1,2.271-2.271H148.9a2.442,2.442,0,0,1,2.271,2.271v80.177h11.357V97.033a2.146,2.146,0,0,1,2.271-2.271h14.99a2.276,2.276,0,0,1,2.271,2.271v53.374h11.357V58.42a2.276,2.276,0,0,1,2.271-2.271h14.99a2.276,2.276,0,0,1,2.271,2.271v91.76h8.632a2.443,2.443,0,0,1,2.271,2.272Z" transform="translate(2026.188 239.553)" fill="#f8932d"/>
    <path id="Path_59" data-name="Path 59" d="M157.39,45.283a9.111,9.111,0,0,1,9.085-9.085,8.188,8.188,0,0,1,4.542,1.362L186.235,21.89a9.39,9.39,0,0,1-1.136-4.315,9.085,9.085,0,1,1,18.169,0A10.813,10.813,0,0,1,201.68,22.8l22.032,26.573a7.461,7.461,0,0,1,3.862-.909,9.4,9.4,0,0,1,3.634.682l31.8-33.161h-8.631a2.276,2.276,0,0,1-2.271-2.271,2.146,2.146,0,0,1,2.271-2.271h14.082a2.276,2.276,0,0,1,2.271,2.271V27.568a2.271,2.271,0,1,1-4.542,0V19.391L234.842,52.1a9.241,9.241,0,0,1,1.817,5.451,9.085,9.085,0,0,1-18.169,0,10.118,10.118,0,0,1,1.589-5.224L198.047,25.749a9.3,9.3,0,0,1-8.857-.454L173.972,40.74a10.571,10.571,0,0,1,1.362,4.542,9.111,9.111,0,0,1-9.085,9.085,8.918,8.918,0,0,1-8.859-9.085Z" transform="translate(1968.408 247.01)" fill="#f8932d"/>
  </g>
</svg>
