<?xml version="1.0" encoding="UTF-8" standalone="no"?>
<svg
   xmlns:dc="http://purl.org/dc/elements/1.1/"
   xmlns:cc="http://creativecommons.org/ns#"
   xmlns:rdf="http://www.w3.org/1999/02/22-rdf-syntax-ns#"
   xmlns:svg="http://www.w3.org/2000/svg"
   xmlns="http://www.w3.org/2000/svg"
   xmlns:sodipodi="http://sodipodi.sourceforge.net/DTD/sodipodi-0.dtd"
   xmlns:inkscape="http://www.inkscape.org/namespaces/inkscape"
   width="42"
   height="35"
   viewBox="0 0 42 35"
   version="1.1"
   id="svg6"
   sodipodi:docname="role-per-icon.svg"
   inkscape:version="0.92.4 (5da689c313, 2019-01-14)">
  <metadata
     id="metadata12">
    <rdf:RDF>
      <cc:Work
         rdf:about="">
        <dc:format>image/svg+xml</dc:format>
        <dc:type
           rdf:resource="http://purl.org/dc/dcmitype/StillImage" />
      </cc:Work>
    </rdf:RDF>
  </metadata>
  <defs
     id="defs10" />
  <sodipodi:namedview
     pagecolor="#ffffff"
     bordercolor="#666666"
     borderopacity="1"
     objecttolerance="10"
     gridtolerance="10"
     guidetolerance="10"
     inkscape:pageopacity="0"
     inkscape:pageshadow="2"
     inkscape:window-width="1536"
     inkscape:window-height="801"
     id="namedview8"
     showgrid="false"
     inkscape:zoom="6.7428571"
     inkscape:cx="17.811441"
     inkscape:cy="17.5"
     inkscape:window-x="-8"
     inkscape:window-y="-8"
     inkscape:window-maximized="1"
     inkscape:current-layer="svg6" />
  <g
     transform="translate(-17,-125)"
     data-name="Group 1306"
     id="Group_1306"
     style="fill:none">
    <path
       style="fill:none"
       inkscape:connector-curvature="0"
       transform="translate(17,125)"
       d="M 12,0 H 30 A 12,12 0 0 1 42,12 V 23 A 12,12 0 0 1 30,35 H 12 A 12,12 0 0 1 0,23 V 12 A 12,12 0 0 1 12,0 Z"
       data-name="Path 10933"
       id="Path_10933" />
  </g>
  <path
     style="fill:#ffffff"
     inkscape:connector-curvature="0"
     d="m 20.54,8 a 1.869,1.869 0 0 1 1.869,1.869 v 6.54 a 1.869,1.869 0 0 1 -1.869,1.869 h -0.934 v 7.475 a 0.934,0.934 0 0 1 -0.934,0.934 H 17.738 A 0.934,0.934 0 0 1 16.804,25.753 V 18.278 H 15.87 A 1.869,1.869 0 0 1 14.001,16.409 V 9.869 A 1.869,1.869 0 0 1 15.87,8 h 4.672 m 0,8.409 v -6.54 h -0.936 v 4.2 a 0.467,0.467 0 0 1 -0.467,0.467 0.467,0.467 0 0 1 -0.467,-0.467 v -4.2 h -0.934 v 4.2 a 0.467,0.467 0 0 1 -0.467,0.467 0.467,0.467 0 0 1 -0.467,-0.467 v -4.2 H 15.87 v 6.54 h 4.672 M 28.442,8 a 0.514,0.514 0 0 1 0.514,0.514 v 17.239 a 0.934,0.934 0 0 1 -0.934,0.934 H 27.088 A 0.934,0.934 0 0 1 26.154,25.753 V 22.016 H 25.22 A 1.869,1.869 0 0 1 23.351,20.147 V 13.095 A 5.092,5.092 0 0 1 28.443,8.003 M 25.22,20.149 h 1.869 V 10.17 a 3.233,3.233 0 0 0 -1.869,2.924 v 7.054"
     data-name="Path 10983"
     id="Path_10983" />
</svg>
