<svg xmlns="http://www.w3.org/2000/svg" width="151.344" height="141.999" viewBox="0 0 151.344 141.999">
  <g id="Group_11" data-name="Group 11" transform="translate(-1401.706 -394.89)">
    <path id="Path_52" data-name="Path 52" d="M517.242,327.876c-1.153,2.684-3.185,3.662-6.088,3.588-5.657-.141-11.318-.039-16.978-.044-3.428,0-5.305-1.868-5.305-5.284q-.008-36.389,0-72.79c0-3.42,1.865-5.271,5.308-5.277,5.66,0,11.32.1,16.978-.043,2.9-.074,4.936.9,6.087,3.588q0,38.136,0,76.261Z" transform="translate(1035.807 205.421)" fill="#f8932d" fill-rule="evenodd"/>
    <path id="Path_53" data-name="Path 53" d="M278.865,110.141a12.319,12.319,0,0,1-2.083,2.777,4.662,4.662,0,0,1-7.367-3.468c-.517-4.448-1.012-8.9-1.824-13.615a6.159,6.159,0,0,1-.347.732c-15.78,24.571-37.215,42.8-63.023,56.108a178.8,178.8,0,0,1-44.593,16.4,114.028,114.028,0,0,1-24.9,2.777,20.465,20.465,0,0,1-3.529-.28c-1.943-.359-2.954-1.8-3.676-3.5v-2.363c1.288-2.778,3.43-3.528,6.452-3.419a91.076,91.076,0,0,0,24.432-2.742c33.155-7.936,62.064-23.43,85.578-48.408a132.422,132.422,0,0,0,15.882-20.717c.282-.453.536-.928.922-1.607-.557.105-.915.146-1.261.245-4.918,1.4-9.823,2.843-14.751,4.189-3.634.993-6.7-1.666-6.14-5.265a4.4,4.4,0,0,1,3.335-3.754q13.886-4.008,27.8-7.921a4.625,4.625,0,0,1,5.841,4.09c1,8.654,1.973,17.311,2.967,25.965a8.061,8.061,0,0,0,.278,1.117q0,1.326,0,2.656Z" transform="translate(1274.184 318.815)" fill="#f8932d" fill-rule="evenodd"/>
    <path id="Path_54" data-name="Path 54" d="M127.518,402.746c1.147-2.689,3.169-3.669,6.081-3.588,5.7.146,11.409.036,17.113.044,3.289.005,5.182,1.943,5.182,5.26q0,10.7,0,21.394c0,3.387-1.9,5.261-5.321,5.269-5.656,0-11.314-.1-16.968.04-2.9.066-4.937-.893-6.084-3.588q0-12.416,0-24.831Z" transform="translate(1274.19 105.72)" fill="#f8932d" fill-rule="evenodd"/>
    <path id="Path_55" data-name="Path 55" d="M396.71,357.574q0,11.082,0,22.169c0,3.872-1.728,5.612-5.559,5.616q-8.722,0-17.439,0c-3.5,0-5.374-1.872-5.374-5.4q-.012-22.46,0-44.923c0-3.309,1.953-5.248,5.229-5.248q8.867-.006,17.734,0c3.629,0,5.414,1.811,5.415,5.466q.012,11.156,0,22.318h-.005Z" transform="translate(1115.326 151.484)" fill="#f8932d" fill-rule="evenodd"/>
    <path id="Path_56" data-name="Path 56" d="M248.023,400.2c0-4.579-.009-9.16,0-13.738.009-3.314,1.906-5.21,5.235-5.217q8.787-.02,17.578,0c3.7.012,5.565,1.872,5.567,5.537q0,13.441-.005,26.884c0,3.838-1.784,5.634-5.578,5.637q-8.789,0-17.578,0c-3.348-.005-5.21-1.868-5.217-5.208-.011-4.633,0-9.26,0-13.89Z" transform="translate(1194.694 117.542)" fill="#f8932d" fill-rule="evenodd"/>
    <path id="Path_57" data-name="Path 57" d="M282.362,115.463a11.909,11.909,0,0,1-3.217,8.333,14.235,14.235,0,0,1-8.622,4.343q.13,1.607.129,3.089,0,3.282-2.253,3.282t-2.254-3.282l.065-2.959a20.757,20.757,0,0,1-8.912-2.54q-3.956-2.217-3.956-4.28a2.027,2.027,0,0,1,.514-1.449,1.781,1.781,0,0,1,1.351-.546,3.777,3.777,0,0,1,2.123,1.032,15.908,15.908,0,0,0,9.01,3.666q.126-9.01.128-19.755a39.294,39.294,0,0,1-8.2-5.921,9.289,9.289,0,0,1-2.994-6.787A8.74,8.74,0,0,1,258.3,85.06a13.339,13.339,0,0,1,7.912-3.314V79.238q0-3.282,2.189-3.282c1.456,0,2.188,1.094,2.188,3.282v2.508a17.437,17.437,0,0,1,6.883,1.93q2.768,1.547,2.769,3.411a1.818,1.818,0,0,1-.484,1.254,1.782,1.782,0,0,1-1.412.546A8.431,8.431,0,0,1,275,87.441a9.454,9.454,0,0,0-4.537-1.511q-.13,7.721-.128,15.506a47.894,47.894,0,0,1,7.655,5.34,14.536,14.536,0,0,1,3.411,4.312,10.18,10.18,0,0,1,.964,4.375ZM259.973,91.72q0,3.41,6.5,7.528,0-8.75-.128-13.318a8.576,8.576,0,0,0-4.568,1.8,4.891,4.891,0,0,0-1.8,3.989Zm15.506,29.375a7.785,7.785,0,0,0,2.058-5.277,7.164,7.164,0,0,0-1.865-4.987,24.355,24.355,0,0,0-5.34-4.183q0,13,.063,17.309a8.469,8.469,0,0,0,5.084-2.861Z" transform="translate(1191.182 318.934)" fill="#f8932d"/>
  </g>
</svg>
